<svg xmlns="http://www.w3.org/2000/svg" viewBox="0 0 100 100"><path fill="#005ad7" d="M0 10C0 4.48 4.48 0 10 0h80c5.52 0 10 4.48 10 10v80c0 5.52-4.48 10-10 10H10c-5.52 0-10-4.48-10-10z"/><path fill="#fff" d="M62.953 27.438q2.875 0 5.437 1.03 2.563 1.016 4.484 2.845 1.923 1.812 3.063 4.312 1.157 2.5 1.157 5.374v4.61q0 2.875-1.093 5.312-1.08 2.439-2.97 4.235-1.89 1.782-4.422 2.844-2.515 1.047-5.328 1.172l14.656 13.125H62.375L39.782 52.203v-2.875h23.17q1.408 0 2.391-1.188 1-1.187 1-2.531v-4.61q0-.39-.187-1.015-.187-.64-.577-1.28-.454-.642-1.095-1.032-.641-.392-1.531-.392h-30.14v35.017h-10.75v-44.86h40.89Z"/></svg>