<svg xmlns="http://www.w3.org/2000/svg" viewBox="0 0 100 100"><g transform="matrix(1, 0, 0, 1, 50, 50)"><circle r="49.45" fill="#005AD7"/><path fill="#FFFFFF" d="M12.953-22.562q2.875 0 5.437 1.03 2.563 1.016 4.484 2.845 1.923 1.812 3.063 4.312 1.157 2.5 1.157 5.374v4.61q0 2.875-1.093 5.312-1.08 2.439-2.97 4.235Q21.14 6.938 18.609 8q-2.515 1.047-5.328 1.172l14.656 13.125H12.375L-10.218 2.203V-.672h23.17q1.408 0 2.391-1.188 1-1.187 1-2.531v-4.61q0-.39-.187-1.015-.187-.64-.577-1.28-.454-.642-1.095-1.032-.641-.392-1.531-.392h-30.14v35.017h-10.75v-44.86h40.89Z"/></g></svg>