<svg xmlns="http://www.w3.org/2000/svg" viewBox="0 0 100 100"><path transform="translate(49.482 47.625)scale(.17186)" d="M78.38-117.46q16.73 0 31.64 6 14.91 5.91 26.09 16.55 11.19 10.54 17.82 25.09 6.73 14.54 6.73 31.27v26.82q0 16.73-6.36 30.91-6.28 14.19-17.28 24.64-11 10.37-25.73 16.55-14.63 6.09-31 6.82l85.28 76.37H75.02L-56.44 26.64V9.91H78.38q8.19 0 13.91-6.91 5.82-6.91 5.82-14.73v-26.82q0-2.27-1.09-5.91-1.09-3.72-3.36-7.45-2.64-3.73-6.37-6-3.73-2.28-8.91-2.28H-96.99v203.75h-62.55v-261.02z" style="fill:#005ad7"/></svg>